<?xml version="1.0" standalone="no"?>
<!DOCTYPE svg PUBLIC "-//W3C//DTD SVG 20010904//EN"
 "http://www.w3.org/TR/2001/REC-SVG-20010904/DTD/svg10.dtd">
<svg version="1.0" xmlns="http://www.w3.org/2000/svg"
 width="60.000000pt" height="55.000000pt" viewBox="0 0 60.000000 55.000000"
 preserveAspectRatio="xMidYMid meet">
<metadata>
Created by potrace 1.16, written by Peter Selinger 2001-2019
</metadata>
<g transform="translate(0.000000,55.000000) scale(0.100000,-0.100000)"
fill="rgb(63, 63, 63)" stroke="none">
<path d="M0 275 l0 -275 300 0 300 0 0 275 0 275 -300 0 -300 0 0 -275z m289
165 c36 -6 69 -14 74 -17 30 -18 93 -215 80 -249 -3 -8 8 -14 34 -17 32 -3 29
-4 -17 -6 -44 -2 -51 -4 -32 -11 12 -5 22 -14 22 -20 0 -16 42 -12 62 7 26 23
22 54 -12 99 -29 39 -41 99 -18 92 6 -2 12 -12 14 -22 2 -17 49 -76 67 -84 4
-2 7 -25 7 -51 0 -65 -32 -96 -100 -96 -52 0 -81 18 -107 68 -17 34 -12 43 16
27 12 -6 21 -8 21 -6 0 9 -58 36 -76 36 -27 0 -54 30 -54 59 0 14 -5 33 -10
41 -7 11 -10 0 -10 -38 0 -53 -13 -92 -29 -92 -5 0 -31 27 -58 60 -26 33 -54
60 -60 60 -23 0 -73 62 -73 89 1 80 82 102 259 71z"/>
</g>
</svg>
