<?xml version="1.0" standalone="no"?>
<svg version="1.0" xmlns="http://www.w3.org/2000/svg"
 width="10%" height="10%" viewBox="0 0 82.000000 67.000000"
 xml:space="preserve">
<g class="elephant" transform="translate(0.000000,67.000000) scale(0.100000,-0.100000)"
fill="brown">

<path class="path" stroke="brown" stroke-width="3" 
d="M0 335 l-1000 335 -415 0 -415 0 0 375 0 375 -415 0 -415 0 0 -335z m330
196 c19 -5 56 -12 82 -16 43 -6 50 -11 72 -48 33 -57 56 -130 58 -183 2 -42 4
-43 38 -47 29 -3 27 -4 -13 -5 -31 -1 -62 5 -87 18 -22 11 -47 20 -56 20 -27
0 -54 30 -54 59 0 14 -5 33 -10 41 -7 11 -10 0 -10 -38 0 -53 -13 -92 -29 -92
-5 0 -31 27 -58 60 -26 33 -54 60 -60 60 -7 0 -26 14 -43 31 -51 54 -35 109
37 134 45 17 85 18 133 6z m265 -151 c-5 -8 51 -81 68 -88 4 -2 7 -25 7 -51 0
-38 -5 -52 -26 -72 -34 -32 -111 -34 -144 -4 -23 21 -54 74 -47 81 6 6 95 -34
102 -46 9 -15 36 -12 57 7 26 23 22 63 -12 103 -28 32 -38 68 -24 83 9 9 26
-2 19 -13z"/>
</g>

<style>


.path {
    stroke-dasharray: 1800;
    stroke-dashoffset: 1800;
    animation: dash 5s linear forwards;
  }

.elephant {
    -webkit-animation-name: bgcolor;
    -webkit-animation-duration: 7s;
    animation-name: bgcolor;
    animation-duration: 7s;
    animation-iteration-count: forwards;
  }

@keyframes dash {
    to {
      stroke-dashoffset: 0;
    }
  }

@-webkit-keyframes bgcolor{
    0% {
    fill: #fff;
}

@keyframes bgcolor {
  0% {
    fill: #fff;
  }
</style>
</svg>

